<svg width="40" height="40" viewBox="0 0 40 40" fill="none" xmlns="http://www.w3.org/2000/svg">
  <!-- Wheat icon minimalist -->
  <path d="M20 38C20 38 20 38 20 38V38Z" stroke="black" stroke-width="2" stroke-linecap="round"/>
  <path d="M20 5V38" stroke="black" stroke-width="2" stroke-linecap="round"/>
  
  <!-- Left side grains -->
  <ellipse cx="14" cy="8" rx="3" ry="4" transform="rotate(-30 14 8)" stroke="black" stroke-width="1.5" fill="none"/>
  <ellipse cx="12" cy="13" rx="3" ry="4" transform="rotate(-30 12 13)" stroke="black" stroke-width="1.5" fill="none"/>
  <ellipse cx="11" cy="18" rx="3" ry="4" transform="rotate(-30 11 18)" stroke="black" stroke-width="1.5" fill="none"/>
  <ellipse cx="10" cy="23" rx="3" ry="4" transform="rotate(-30 10 23)" stroke="black" stroke-width="1.5" fill="none"/>
  <ellipse cx="10" cy="28" rx="3" ry="4" transform="rotate(-30 10 28)" stroke="black" stroke-width="1.5" fill="none"/>
  
  <!-- Right side grains -->
  <ellipse cx="26" cy="8" rx="3" ry="4" transform="rotate(30 26 8)" stroke="black" stroke-width="1.5" fill="none"/>
  <ellipse cx="28" cy="13" rx="3" ry="4" transform="rotate(30 28 13)" stroke="black" stroke-width="1.5" fill="none"/>
  <ellipse cx="29" cy="18" rx="3" ry="4" transform="rotate(30 29 18)" stroke="black" stroke-width="1.5" fill="none"/>
  <ellipse cx="30" cy="23" rx="3" ry="4" transform="rotate(30 30 23)" stroke="black" stroke-width="1.5" fill="none"/>
  <ellipse cx="30" cy="28" rx="3" ry="4" transform="rotate(30 30 28)" stroke="black" stroke-width="1.5" fill="none"/>
</svg>

